<svg width="18" height="14" viewBox="0 0 18 14" fill="none" xmlns="http://www.w3.org/2000/svg">
<path d="M15.5062 1.55196C13.9484 0.233887 11.484 0.0109093 11.3793 0.00143914C11.2148 -0.0131965 11.0585 0.0849483 10.9915 0.243358C10.9865 0.253689 10.9325 0.383688 10.8728 0.586004C11.9029 0.768519 13.1686 1.13699 14.3141 1.88513C14.4974 2.0048 14.5538 2.25877 14.4401 2.45248C14.3665 2.57817 14.238 2.64705 14.1071 2.64705C14.0367 2.64705 13.9655 2.62725 13.9009 2.58506C11.9324 1.30057 9.47291 1.236 9 1.236C8.52709 1.236 6.06682 1.30057 4.09991 2.58506C3.91582 2.70559 3.67527 2.64532 3.56073 2.45248C3.44618 2.25877 3.50345 2.00566 3.68673 1.88513C4.83218 1.13785 6.09709 0.768519 7.128 0.586004C7.06745 0.382827 7.01345 0.253689 7.00936 0.243358C6.94145 0.0849483 6.786 -0.0149184 6.62073 0.0023C6.51682 0.0109092 4.05245 0.233887 2.47336 1.5709C1.64864 2.37241 0 7.06271 0 11.1176C0 11.1891 0.018 11.2597 0.0515454 11.3217C1.18964 13.4249 4.29382 13.9759 5.00155 14C5.00564 14 5.00973 14 5.01382 14C5.139 14 5.25682 13.9372 5.33045 13.8304L6.04636 12.7956C4.11627 12.2704 3.13036 11.3794 3.07309 11.3268C2.91109 11.1762 2.89555 10.9162 3.03873 10.7457C3.18191 10.5753 3.42818 10.5589 3.59018 10.7087C3.61391 10.7311 5.42945 12.3522 9 12.3522C12.5771 12.3522 14.3926 10.7242 14.4106 10.7078C14.5726 10.5598 14.8197 10.5753 14.9621 10.7466C15.1045 10.917 15.0889 11.1762 14.9277 11.326C14.8705 11.3794 13.8845 12.2696 11.9545 12.7947L12.6704 13.8295C12.744 13.9363 12.8618 13.9991 12.987 13.9991C12.9911 13.9991 12.9952 13.9991 12.9993 13.9991C13.707 13.9759 16.8112 13.4249 17.9493 11.3208C17.982 11.2588 18 11.1891 18 11.1176C18 7.06271 16.3514 2.37241 15.5062 1.55196ZM6.45627 9.4707C5.70027 9.4707 5.08664 8.73289 5.08664 7.82376C5.08664 6.91463 5.69945 6.17682 6.45627 6.17682C7.21309 6.17682 7.82591 6.91463 7.82591 7.82376C7.82591 8.73289 7.21309 9.4707 6.45627 9.4707ZM11.5437 9.4707C10.7877 9.4707 10.1741 8.73289 10.1741 7.82376C10.1741 6.91463 10.7869 6.17682 11.5437 6.17682C12.2997 6.17682 12.9134 6.91463 12.9134 7.82376C12.9134 8.73289 12.2997 9.4707 11.5437 9.4707Z" fill="white"/>
</svg>
