<svg width="22" height="13" viewBox="0 0 22 13" fill="none" xmlns="http://www.w3.org/2000/svg">
<path d="M21.8833 11.7404C21.8567 11.681 21.8319 11.6316 21.8088 11.5921C21.4271 10.8801 20.6977 10.0062 19.621 8.97013L19.5982 8.94641L19.5868 8.93477L19.5753 8.92285H19.5638C19.0751 8.44039 18.7657 8.11599 18.6361 7.94991C18.399 7.63354 18.3459 7.3133 18.4754 6.98882C18.567 6.74366 18.9109 6.22593 19.5064 5.43491C19.8196 5.01569 20.0676 4.67971 20.2508 4.42657C21.572 2.60744 22.1448 1.44499 21.9691 0.938763L21.9008 0.820465C21.855 0.749245 21.7366 0.684092 21.5459 0.624673C21.3548 0.565379 21.1105 0.555573 20.8126 0.595089L17.5138 0.61869C17.4604 0.599077 17.3841 0.600905 17.2846 0.624673C17.1853 0.648441 17.1357 0.660366 17.1357 0.660366L17.0783 0.690076L17.0327 0.725768C16.9945 0.74937 16.9525 0.79088 16.9066 0.850216C16.861 0.909344 16.8229 0.978735 16.7924 1.05781C16.4332 2.01479 16.0249 2.90453 15.5666 3.72701C15.284 4.21744 15.0245 4.64248 14.7876 5.00236C14.5509 5.36211 14.3523 5.62717 14.1921 5.79707C14.0316 5.96715 13.8868 6.10339 13.7567 6.20632C13.6269 6.30928 13.5277 6.35279 13.4591 6.33687C13.3903 6.32096 13.3255 6.30517 13.2641 6.28938C13.1573 6.21816 13.0714 6.1213 13.0066 5.99872C12.9415 5.87615 12.8977 5.72187 12.8748 5.536C12.852 5.35002 12.8385 5.19005 12.8346 5.05554C12.8311 4.92121 12.8327 4.73119 12.8405 4.48603C12.8484 4.24075 12.852 4.0748 12.852 3.98779C12.852 3.6872 12.8576 3.36098 12.869 3.00904C12.8805 2.65709 12.8899 2.37824 12.8977 2.17281C12.9055 1.96717 12.9091 1.7496 12.9091 1.52024C12.9091 1.29087 12.8956 1.11099 12.869 0.980439C12.8427 0.850049 12.8023 0.723483 12.749 0.600781C12.6955 0.478203 12.6171 0.383382 12.5142 0.316069C12.4111 0.248838 12.283 0.195485 12.1305 0.155845C11.7257 0.0609823 11.2103 0.00966592 10.584 0.00168799C9.16374 -0.0141017 8.25114 0.0808854 7.84641 0.286525C7.68605 0.37341 7.54094 0.492123 7.41119 0.642291C7.2737 0.816351 7.25452 0.911339 7.35378 0.926962C7.81203 0.998057 8.13643 1.16813 8.32736 1.43701L8.39617 1.57949C8.44969 1.68229 8.50313 1.86429 8.55661 2.12523C8.61001 2.38618 8.64447 2.67484 8.65963 2.99104C8.69775 3.56849 8.69775 4.06279 8.65963 4.47398C8.6214 4.88535 8.58529 5.20559 8.55083 5.43495C8.51637 5.66432 8.46485 5.85018 8.39617 5.99249C8.32736 6.13485 8.28159 6.22186 8.25864 6.25344C8.23573 6.28502 8.21663 6.30492 8.20147 6.31273C8.10221 6.35212 7.99898 6.37219 7.89214 6.37219C7.78515 6.37219 7.6554 6.31676 7.5027 6.20599C7.35005 6.09521 7.19161 5.94305 7.0274 5.74925C6.86319 5.55541 6.678 5.28453 6.47175 4.93658C6.26565 4.58863 6.05181 4.17739 5.83035 3.70287L5.64713 3.35874C5.53259 3.13735 5.37612 2.81499 5.17757 2.39195C4.97889 1.96875 4.80329 1.55938 4.65063 1.16393C4.58961 0.997849 4.49794 0.871408 4.37577 0.784398L4.31844 0.748705C4.28033 0.717126 4.21915 0.683593 4.13522 0.647859C4.05117 0.612166 3.96346 0.58657 3.87175 0.570822L0.733227 0.594423C0.412511 0.594423 0.194901 0.669673 0.0803196 0.819966L0.0344628 0.891061C0.0115545 0.93066 0 0.993902 0 1.08095C0 1.16796 0.0229083 1.27475 0.0687651 1.40119C0.526932 2.51644 1.02518 3.59201 1.5635 4.62806C2.10183 5.66411 2.56963 6.49868 2.96661 7.13101C3.36367 7.7638 3.7684 8.36102 4.18079 8.92239C4.59318 9.48396 4.86616 9.84384 4.99972 10.0019C5.13343 10.1603 5.23847 10.2788 5.31482 10.3578L5.60123 10.6425C5.7845 10.8324 6.05362 11.0597 6.40872 11.3246C6.7639 11.5897 7.15711 11.8506 7.58856 12.1079C8.02009 12.3647 8.5221 12.5743 9.09489 12.7364C9.6676 12.8986 10.225 12.9638 10.7672 12.9323H12.0845C12.3517 12.9084 12.5541 12.8214 12.6917 12.6713L12.7372 12.6118C12.7679 12.5646 12.7966 12.4913 12.8231 12.3926C12.8499 12.2937 12.8632 12.1848 12.8632 12.0664C12.8554 11.7263 12.8803 11.4199 12.9375 11.1471C12.9946 10.8743 13.0596 10.6687 13.1324 10.5302C13.2052 10.3918 13.2872 10.2751 13.3786 10.1804C13.4701 10.0855 13.5354 10.0281 13.5737 10.0083C13.6117 9.9884 13.6421 9.97489 13.665 9.96679C13.8482 9.90355 14.0639 9.9648 14.3123 10.1508C14.5606 10.3367 14.7934 10.5662 15.0111 10.8389C15.2288 11.1119 15.4903 11.4182 15.7957 11.7582C16.1013 12.0984 16.3685 12.3512 16.5975 12.5175L16.8265 12.6599C16.9794 12.7549 17.178 12.8419 17.4224 12.921C17.6663 13 17.8801 13.0198 18.0636 12.9802L20.9959 12.9329C21.2859 12.9329 21.5116 12.8831 21.6717 12.7845C21.8321 12.6856 21.9273 12.5767 21.9581 12.4582C21.9887 12.3396 21.9904 12.2051 21.9639 12.0547C21.9367 11.9046 21.91 11.7997 21.8833 11.7404Z" fill="white"/>
</svg>
