<svg width="16" height="14" viewBox="0 0 16 14" fill="none" xmlns="http://www.w3.org/2000/svg">
<path d="M15.6656 1.91275C15.4816 1.16025 14.9392 0.567 14.2512 0.36575C13.0032 1.82539e-07 8 0 8 0C8 0 2.9968 1.82539e-07 1.7488 0.36575C1.0608 0.567 0.5184 1.16025 0.3344 1.91275C-2.38419e-08 3.27775 0 7 0 7C0 7 -2.38419e-08 10.7222 0.3344 12.0872C0.5184 12.8397 1.0608 13.433 1.7488 13.6343C2.9968 14 8 14 8 14C8 14 13.0032 14 14.2512 13.6343C14.94 13.433 15.4816 12.8397 15.6656 12.0872C16 10.7222 16 7 16 7C16 7 16 3.27775 15.6656 1.91275ZM6.4 10.031V3.969L11.2 7L6.4 10.031Z" fill="white"/>
</svg>
