<svg width="37" height="97" viewBox="0 0 37 97" fill="none" xmlns="http://www.w3.org/2000/svg">
<path fill-rule="evenodd" clip-rule="evenodd" d="M35 39.5V18.5C35 9.3873 27.6127 2 18.5 2C9.3873 2 2 9.3873 2 18.5V39.5C2 48.6127 9.3873 56 18.5 56C27.6127 56 35 48.6127 35 39.5ZM18.5 0C8.28273 0 0 8.28273 0 18.5V39.5C0 49.7173 8.28273 58 18.5 58C28.7173 58 37 49.7173 37 39.5V18.5C37 8.28273 28.7173 0 18.5 0ZM8.72454 67.9999L7 69.7245L17.775 80.4995L17.7716 80.5029L19.4961 82.2274L19.4995 82.224L19.5029 82.2274L21.2275 80.5029L21.2241 80.4995L31.999 69.7245L30.2745 67.9999L19.4995 78.7749L8.72454 67.9999ZM8.72454 81.9999L7 83.7245L17.775 94.4995L17.7716 94.5029L19.4961 96.2274L19.4995 96.224L19.5029 96.2274L21.2275 94.5029L21.2241 94.4995L31.999 83.7245L30.2745 81.9999L19.4995 92.7749L8.72454 81.9999ZM18.5 12C17.6716 12 17 12.6716 17 13.5V25.5C17 26.3284 17.6716 27 18.5 27C19.3284 27 20 26.3284 20 25.5V13.5C20 12.6716 19.3284 12 18.5 12Z" fill="white"/>
</svg>
